<svg xmlns="http://www.w3.org/2000/svg" version="1.1" xmlns:xlink="http://www.w3.org/1999/xlink" xmlns:svgjs="http://svgjs.dev/svgjs" width="1000" height="1000" viewBox="0 0 1000 1000"><rect width="1000" height="1000" fill="#ffffff"></rect><g transform="matrix(0.7,0,0,0.7,149.57575757575756,282.1265587044535)"><svg viewBox="0 0 396 247" data-background-color="#ffffff" preserveAspectRatio="xMidYMid meet" height="623" width="1000" xmlns="http://www.w3.org/2000/svg" xmlns:xlink="http://www.w3.org/1999/xlink"><g id="tight-bounds" transform="matrix(1,0,0,1,0.2400000000000091,-0.09999999999999432)"><svg viewBox="0 0 395.52 247.2" height="247.2" width="395.52"><g><svg></svg></g><g><svg viewBox="0 0 395.52 247.2" height="247.2" width="395.52"><mask id="ddfc2853-2d66-434b-8cee-f950d5633094"><rect width="640" height="400" fill="white"></rect><rect width="348.05760000000004" height="41.46748980731812" fill="black" y="102.86625509634094" x="23.731199999999973" id="transform-me"></rect></mask><g transform="matrix(1,0,0,1,39.55199999999999,109.51602979606788)"><svg viewBox="0 0 316.416 28.16794040786421" height="28.16794040786421" width="316.416"><g><svg viewBox="0 0 316.416 28.16794040786421" height="28.16794040786421" width="316.416"><g><svg viewBox="0 0 316.416 28.16794040786421" height="28.16794040786421" width="316.416"><g id="textblocktransform"><svg viewBox="0 0 316.416 28.16794040786421" height="28.16794040786421" width="316.416" id="textblock"><g><svg viewBox="0 0 316.416 28.16794040786421" height="28.16794040786421" width="316.416"><g transform="matrix(1,0,0,1,0,0)"><svg width="316.416" viewBox="-1.350000023841858 -35.5 409.4100036621094 36.45000076293945" height="28.16794040786421" data-palette-color="#f7f2f2"><path d="M3-0.65L3-0.65Q2.65 0.45 1.43 0.45 0.2 0.45-1.35-0.9L-1.35-0.9Q0.15-5.3 5-15.08 9.85-24.85 11.3-29.7L11.3-29.7Q11.5-30.5 11.5-30.8L11.5-30.8Q11.5-31.55 10.4-33.1L10.4-33.1 10-33.65 10.1-34.3Q14.35-35.5 19.5-35.5L19.5-35.5 22.55-35.3Q23.1-34.55 23.4-33L23.4-33Q24.2-29.2 24.2-13.45L24.2-13.45Q24.2-7.35 25.25-4.85L25.25-4.85Q25.65-3.9 26.05-3.9 26.45-3.9 28.5-4.9L28.5-4.9 29.15-5.2 30.15-3.4Q28.25-1.55 25.93-0.48 23.6 0.6 21.65 0.6L21.65 0.6Q16.6 0.6 16.6-7.25L16.6-7.25 16.6-11.2Q15.3-11.5 12.65-11.5 10-11.5 6.85-11L6.85-11Q4.35-5.2 3-0.65ZM8.45-14.6L16.7-14.6 16.75-20.4Q16.75-28 16.1-30.7L16.1-30.7Q15.7-30.7 15.5-30.6L15.5-30.6Q14.1-26.75 12.88-24.08 11.65-21.4 10.23-18.38 8.8-15.35 8.45-14.6L8.45-14.6ZM44.15 0.6L44.15 0.6Q41.25 0.6 38.15-0.35L38.15-0.35Q35.55 0.3 33.62 0.3 31.7 0.3 31 0.2L31 0.2Q31.35-2.75 34.02-14.78 36.7-26.8 36.7-28.43 36.7-30.05 36.02-31.25 35.35-32.45 34.7-33L34.7-33 34-33.55 34.15-34.3Q35.45-34.65 39.47-35.08 43.5-35.5 46.5-35.5L46.5-35.5Q53.45-35.5 57.02-32.43 60.6-29.35 60.6-22.45L60.6-22.45Q60.6-16.8 58.72-11.63 56.85-6.45 53-2.93 49.15 0.6 44.15 0.6ZM47.7-32.35L47.7-32.35Q46.4-32.35 44.75-32.05L44.75-32.05Q44.25-26.75 41.92-16.57 39.6-6.4 39.2-3.6L39.2-3.6Q40.4-3 42.5-3 44.6-3 46.47-4.67 48.35-6.35 49.5-8.85 50.65-11.35 51.5-14.45L51.5-14.45Q52.95-20 52.95-24.55 52.95-29.1 51.75-30.73 50.55-32.35 47.7-32.35ZM76.2 0.6L76.2 0.6Q73.3 0.6 70.2-0.35L70.2-0.35Q67.59 0.3 65.67 0.3 63.75 0.3 63.05 0.2L63.05 0.2Q63.4-2.75 66.07-14.78 68.75-26.8 68.75-28.43 68.75-30.05 68.07-31.25 67.4-32.45 66.75-33L66.75-33 66.05-33.55 66.2-34.3Q67.5-34.65 71.52-35.08 75.55-35.5 78.55-35.5L78.55-35.5Q85.5-35.5 89.07-32.43 92.65-29.35 92.65-22.45L92.65-22.45Q92.65-16.8 90.77-11.63 88.9-6.45 85.05-2.93 81.2 0.6 76.2 0.6ZM79.75-32.35L79.75-32.35Q78.45-32.35 76.8-32.05L76.8-32.05Q76.3-26.75 73.97-16.57 71.65-6.4 71.25-3.6L71.25-3.6Q72.45-3 74.55-3 76.65-3 78.52-4.67 80.4-6.35 81.55-8.85 82.7-11.35 83.55-14.45L83.55-14.45Q85-20 85-24.55 85-29.1 83.8-30.73 82.59-32.35 79.75-32.35ZM103.34-5.1L103.34-5.1Q103.34-4 103.89-4L103.89-4Q104.19-4 106.79-5.3L106.79-5.3 107.74-3.45Q103.24 0.6 99.79 0.6L99.79 0.6Q97.64 0.6 96.52-0.85 95.39-2.3 95.39-4.45 95.39-6.6 97.82-16.23 100.24-25.85 100.49-29.45L100.49-29.45Q100.49-30.25 99.97-31.38 99.44-32.5 98.89-33.2L98.89-33.2 98.39-33.9 98.54-34.65Q101.39-35.5 107.94-35.5L107.94-35.5Q108.54-34.35 108.54-32.18 108.54-30 105.94-19.6 103.34-9.2 103.34-5.1ZM130.74-9.8L130.74-9.8Q130.74-5 127.09-2.2 123.44 0.6 118.24 0.6L118.24 0.6Q114.74 0.6 112.47-1.18 110.19-2.95 109.94-4.2L109.94-4.2Q110.49-5.85 112.29-7.9 114.09-9.95 115.54-10.4L115.54-10.4Q118.09-8.75 120.29-3.05L120.29-3.05Q123.54-3.15 123.54-6.6L123.54-6.6Q123.54-8.5 122.02-11.28 120.49-14.05 118.69-16.48 116.89-18.9 115.37-21.93 113.84-24.95 113.84-27.3L113.84-27.3Q113.84-31.1 116.92-33.3 119.99-35.5 123.84-35.5 127.69-35.5 129.82-33.85 131.94-32.2 131.94-30.1 131.94-28 130.34-25.8 128.74-23.6 127.14-22.3L127.14-22.3 125.54-21Q126.14-20.2 126.99-18.95 127.84-17.7 129.29-14.7 130.74-11.7 130.74-9.8ZM126.92-26.2Q127.59-26.85 128.14-27.78 128.69-28.7 128.69-29.73 128.69-30.75 127.49-31.45 126.29-32.15 124.62-32.15 122.94-32.15 121.82-31.38 120.69-30.6 120.69-29.53 120.69-28.45 121.42-27.03 122.14-25.6 122.84-24.65L122.84-24.65 123.59-23.7Q124.09-23.95 125.17-24.75 126.24-25.55 126.92-26.2ZM155.59 0.6L155.59 0.6Q150.94 0.6 147.89-3.18 144.84-6.95 144.84-13.05 144.84-19.15 146.94-24.18 149.04-29.2 152.94-32.35 156.84-35.5 161.26-35.5 165.69-35.5 168.41-33.5 171.14-31.5 171.14-28.73 171.14-25.95 169.49-24L169.49-24Q167.89-24 165.89-24.7 163.89-25.4 162.89-26.4L162.89-26.4 163.84-31.45Q162.64-32.2 160.69-32.2L160.69-32.2Q157.64-32.2 155.29-26.98 152.94-21.75 152.94-14.1L152.94-14.1Q152.94-9.05 154.61-6.78 156.29-4.5 158.69-4.5L158.69-4.5Q162.64-4.5 166.29-8.2L166.29-8.2 168.34-6.35Q167.79-5.55 166.34-4.15 164.89-2.75 163.49-1.83 162.09-0.9 159.94-0.15 157.79 0.6 155.59 0.6ZM172.38-0.65L172.38-0.65Q172.03 0.45 170.81 0.45 169.58 0.45 168.03-0.9L168.03-0.9Q169.53-5.3 174.38-15.08 179.23-24.85 180.68-29.7L180.68-29.7Q180.88-30.5 180.88-30.8L180.88-30.8Q180.88-31.55 179.78-33.1L179.78-33.1 179.38-33.65 179.48-34.3Q183.73-35.5 188.88-35.5L188.88-35.5 191.93-35.3Q192.48-34.55 192.78-33L192.78-33Q193.58-29.2 193.58-13.45L193.58-13.45Q193.58-7.35 194.63-4.85L194.63-4.85Q195.03-3.9 195.43-3.9 195.83-3.9 197.88-4.9L197.88-4.9 198.53-5.2 199.53-3.4Q197.63-1.55 195.31-0.48 192.98 0.6 191.03 0.6L191.03 0.6Q185.98 0.6 185.98-7.25L185.98-7.25 185.98-11.2Q184.68-11.5 182.03-11.5 179.38-11.5 176.23-11L176.23-11Q173.73-5.2 172.38-0.65ZM177.83-14.6L186.08-14.6 186.13-20.4Q186.13-28 185.48-30.7L185.48-30.7Q185.08-30.7 184.88-30.6L184.88-30.6Q183.48-26.75 182.26-24.08 181.03-21.4 179.61-18.38 178.18-15.35 177.83-14.6L177.83-14.6ZM201.68 0.25L201.68 0.25Q200.73 0.25 200.38 0.2L200.38 0.2Q200.73-2.7 203.46-14.53 206.18-26.35 206.18-29.5L206.18-29.5Q206.18-30.1 205.48-31.08 204.78-32.05 204.08-32.7L204.08-32.7 203.43-33.4 203.58-34.2Q210.43-35.5 218.08-35.5L218.08-35.5Q227.28-35.5 227.28-28.25L227.28-28.25Q227.28-24.7 225.51-21.78 223.73-18.85 219.98-17.2L219.98-17.2Q222.78-7.85 224.78-5.1L224.78-5.1Q225.68-3.95 226.18-3.95L226.18-3.95Q227.08-3.95 228.98-4.85L228.98-4.85 229.58-5.15 230.73-3.3Q228.88-1.6 226.46-0.5 224.03 0.6 221.91 0.6 219.78 0.6 218.41-1.23 217.03-3.05 215.91-6.6 214.78-10.15 213.63-15.7L213.63-15.7Q212.03-15.6 211.18-15.6L211.18-15.6Q208.63-4.65 208.38-0.8L208.38-0.8Q206.23 0.25 201.68 0.25ZM211.93-19L213.13-19Q216.13-19 217.86-21.68 219.58-24.35 219.58-28.05L219.58-28.05Q219.58-30 218.88-31.2 218.18-32.4 216.78-32.4L216.78-32.4Q216.18-32.4 215.36-32.23 214.53-32.05 214.53-32L214.53-32Q213.73-26.85 211.93-19L211.93-19ZM243.33 0.25L243.33 0.25Q242.38 0.25 242.03 0.2L242.03 0.2Q242.38-2.7 245.1-14.53 247.83-26.35 247.83-29.5L247.83-29.5Q247.83-30.1 247.13-31.08 246.43-32.05 245.73-32.7L245.73-32.7 245.08-33.4 245.23-34.2Q252.08-35.5 259.73-35.5L259.73-35.5Q268.93-35.5 268.93-28.25L268.93-28.25Q268.93-24.7 267.15-21.78 265.38-18.85 261.63-17.2L261.63-17.2Q264.43-7.85 266.43-5.1L266.43-5.1Q267.33-3.95 267.83-3.95L267.83-3.95Q268.73-3.95 270.63-4.85L270.63-4.85 271.23-5.15 272.38-3.3Q270.53-1.6 268.1-0.5 265.68 0.6 263.55 0.6 261.43 0.6 260.05-1.23 258.68-3.05 257.55-6.6 256.43-10.15 255.28-15.7L255.28-15.7Q253.68-15.6 252.83-15.6L252.83-15.6Q250.28-4.65 250.03-0.8L250.03-0.8Q247.88 0.25 243.33 0.25ZM253.58-19L254.78-19Q257.78-19 259.5-21.68 261.23-24.35 261.23-28.05L261.23-28.05Q261.23-30 260.53-31.2 259.83-32.4 258.43-32.4L258.43-32.4Q257.83-32.4 257-32.23 256.18-32.05 256.18-32L256.18-32Q255.38-26.85 253.58-19L253.58-19ZM283.92 0.6L283.92 0.6Q280.42 0.6 277.22-1.4L277.22-1.4Q275.62-2.4 274.6-4.2 273.57-6 273.57-8.35L273.57-8.35Q273.57-12.8 276.52-15.6 279.47-18.4 283.62-18.85L283.62-18.85Q280.82-19.6 279.15-21.45 277.47-23.3 277.47-26.15L277.47-26.15Q277.47-30.45 280.85-32.98 284.22-35.5 288.57-35.5 292.92-35.5 295.82-33.65 298.72-31.8 298.72-28.65L298.72-28.65Q298.72-27.55 298.35-26.5 297.97-25.45 297.57-25L297.57-25 297.22-24.5Q295.62-24.5 293.7-25.05 291.77-25.6 290.87-26.45L290.87-26.45 291.47-31.6Q290.72-32.35 288.95-32.35 287.17-32.35 286.15-30.53 285.12-28.7 285.12-26.35 285.12-24 285.67-22.8 286.22-21.6 287.22-20.95L287.22-20.95Q288.77-19.95 290.87-19.55L290.87-19.55 290.47-16.8Q286.87-16.8 284.22-14.68 281.57-12.55 281.57-9.05L281.57-9.05Q281.57-6.85 283-5.43 284.42-4 286.67-4L286.67-4Q290.77-4 295.07-8.15L295.07-8.15 297.07-6.3Q291.27 0.6 283.92 0.6ZM300.37 0.2L300.37 0.2 299.42 0.2Q299.62-2.05 302.07-13.03 304.52-24 305.12-29.45L305.12-29.45Q305.12-30.25 304.6-31.38 304.07-32.5 303.52-33.2L303.52-33.2 303.02-33.9 303.17-34.65Q305.97-35.5 312.82-35.5L312.82-35.5Q313.47-34.3 313.47-33.15 313.47-32 313.27-30.3L313.27-30.3Q319.52-35.5 323.47-35.5L323.47-35.5Q326.07-35.5 327.67-33.8 329.27-32.1 329.27-29.05 329.27-26 327.15-17.43 325.02-8.85 325.02-5.45L325.02-5.45Q325.02-4 325.52-4L325.52-4Q325.97-4 328.02-5L328.02-5 328.67-5.3 329.67-3.45Q327.57-1.65 325.32-0.53 323.07 0.6 321.25 0.6 319.42 0.6 318.27-0.73 317.12-2.05 317.12-4.33 317.12-6.6 319.2-15.65 321.27-24.7 321.27-27.2 321.27-29.7 319.32-29.7L319.32-29.7Q316.37-29.7 312.62-26.75L312.62-26.75Q312.07-24.1 310.57-17.9L310.57-17.9Q307.27-4.25 307.27-0.8L307.27-0.8Q305.32 0.2 300.37 0.2ZM337.07-35.5L337.07-35.5 353.77-34.95 358.47-35.05Q358.62-34 358.62-32.85 358.62-31.7 358.22-31.2 357.82-30.7 356.77-30.7L356.77-30.7Q356.67-30.7 349.72-31.35L349.72-31.35Q349.52-29.1 348.22-23.65 346.92-18.2 345.72-12 344.52-5.8 344.47-0.85L344.47-0.85Q342.52 0.15 336.47 0.15L336.47 0.15 336.12 0.15Q336.12-2.45 338.97-15.35 341.82-28.25 341.82-31.05L341.82-31.05Q341.82-31.25 341.72-31.75L341.72-31.75 339.72-31.75Q335.62-31.75 333.42-30.5L333.42-30.5Q332.27-32 332.02-34.9L332.02-34.9Q333.72-35.5 337.07-35.5ZM357.22-0.65L357.22-0.65Q356.87 0.45 355.64 0.45 354.42 0.45 352.87-0.9L352.87-0.9Q354.37-5.3 359.22-15.08 364.07-24.85 365.52-29.7L365.52-29.7Q365.72-30.5 365.72-30.8L365.72-30.8Q365.72-31.55 364.62-33.1L364.62-33.1 364.22-33.65 364.32-34.3Q368.57-35.5 373.72-35.5L373.72-35.5 376.77-35.3Q377.32-34.55 377.62-33L377.62-33Q378.42-29.2 378.42-13.45L378.42-13.45Q378.42-7.35 379.47-4.85L379.47-4.85Q379.87-3.9 380.27-3.9 380.67-3.9 382.72-4.9L382.72-4.9 383.37-5.2 384.37-3.4Q382.47-1.55 380.14-0.48 377.82 0.6 375.87 0.6L375.87 0.6Q370.82 0.6 370.82-7.25L370.82-7.25 370.82-11.2Q369.52-11.5 366.87-11.5 364.22-11.5 361.07-11L361.07-11Q358.57-5.2 357.22-0.65ZM362.67-14.6L370.92-14.6 370.97-20.4Q370.97-28 370.32-30.7L370.32-30.7Q369.92-30.7 369.72-30.6L369.72-30.6Q368.32-26.75 367.09-24.08 365.87-21.4 364.44-18.38 363.02-15.35 362.67-14.6L362.67-14.6ZM407.01-2.4Q406.41-0.85 405.14 0.05 403.86 0.95 402.14 0.95 400.41 0.95 396.99-1.15 393.56-3.25 391.51-3.85L391.51-3.85Q390.16-2.05 388.46-0.85 386.76 0.35 386.11 0.35L386.11 0.35Q385.61 0.35 384.11-1.83 382.61-4 382.61-4.95L382.61-4.95Q382.61-5.5 384.19-6.6 385.76-7.7 387.51-8.1L387.51-8.1Q388.76-11.15 390.11-17.13 391.46-23.1 392.21-29.45L392.21-29.45Q392.21-30.25 391.69-31.38 391.16-32.5 390.61-33.2L390.61-33.2 390.11-33.9 390.26-34.65Q393.26-35.5 400.11-35.5L400.11-35.5Q400.76-34.4 400.76-32.15 400.76-29.9 399.46-25.45 398.16-21 395.89-14.78 393.61-8.55 393.26-7.4L393.26-7.4Q393.46-7.35 394.51-7.05 395.56-6.75 395.89-6.68 396.21-6.6 397.16-6.38 398.11-6.15 398.66-6.08 399.21-6 400.11-5.9L400.11-5.9Q401.66-5.65 403.04-5.65 404.41-5.65 405.01-6.35L405.01-6.35 406.41-8.95 408.06-8.55Q408.06-5.3 407.01-2.4L407.01-2.4Z" opacity="1" transform="matrix(1,0,0,1,0,0)" fill="#f7f2f2" class="wordmark-text-0" data-fill-palette-color="primary" id="text-0"></path></svg></g></svg></g></svg></g></svg></g><g></g></svg></g></svg></g><g mask="url(#ddfc2853-2d66-434b-8cee-f950d5633094)"><g transform="matrix(2.6222636816833735, 0, 0, 2.6222636816833735, 91.92019456029786, 1)"><svg xmlns="http://www.w3.org/2000/svg" xmlns:xlink="http://www.w3.org/1999/xlink" version="1.1" x="0" y="0" viewBox="9.63800048828125 3.246999979019165 80.7239990234375 93.50699615478516" enable-background="new 0 0 100 100" xml:space="preserve" height="93.50699615478516" width="80.7239990234375" class="icon-none" data-fill-palette-color="accent" id="none"><g fill="#ffffff" data-fill-palette-color="accent"><g fill="#ffffff" data-fill-palette-color="accent"><polygon points="36.703,11.011 9.638,26.636 9.638,38.757 36.703,23.131 63.767,38.757 63.767,26.636   " fill="#ffffff" data-fill-palette-color="accent"></polygon></g><g fill="#ffffff" data-fill-palette-color="accent"><polygon points="63.298,89.092 36.233,73.467 36.233,61.348 63.298,76.973 90.362,61.348 90.362,73.467   " fill="#ffffff" data-fill-palette-color="accent"></polygon></g><g fill="#ffffff" data-fill-palette-color="accent"><polygon points="9.638,42.012 36.703,26.386 47.198,32.446 20.134,48.072 20.134,79.324 9.638,73.264   " fill="#ffffff" data-fill-palette-color="accent"></polygon></g><g fill="#ffffff" data-fill-palette-color="accent"><polygon points="77.083,18.872 50.018,3.247 39.522,9.307 66.586,24.932 66.586,56.184 77.083,50.124   " fill="#ffffff" data-fill-palette-color="accent"></polygon></g><g fill="#ffffff" data-fill-palette-color="accent"><polygon points="23.01,81.127 23.011,49.876 33.507,43.816 33.507,75.068 60.571,90.693 50.075,96.754   " fill="#ffffff" data-fill-palette-color="accent"></polygon></g><g fill="#ffffff" data-fill-palette-color="accent"><polygon points="90.362,58.092 90.362,26.84 79.866,20.78 79.866,52.031 52.802,67.658 63.298,73.719   " fill="#ffffff" data-fill-palette-color="accent"></polygon></g></g></svg></g></g></svg></g><defs></defs></svg><rect width="395.52" height="247.2" fill="none" stroke="none" visibility="hidden"></rect></g></svg></g></svg>